<svg width="12800" height="1280" viewBox="0 0 12800 1280" fill="none" xmlns="http://www.w3.org/2000/svg">
<rect x="1280" width="1280" height="1280" fill="#CEDCFF"/>
<circle cx="2246" cy="408" r="88" fill="#C08A00"/>
<circle cx="1624" cy="408" r="88" fill="#C08A00"/>
<ellipse cx="1631.5" cy="421" rx="80.5" ry="78" fill="#FFEDBF"/>
<ellipse cx="2238.5" cy="421" rx="80.5" ry="78" fill="#FFEDBF"/>
<ellipse cx="1632.9" cy="1174.94" rx="90.1381" ry="73.252" transform="rotate(-25.519 1632.9 1174.94)" fill="#FFF5DC"/>
<ellipse cx="90.1381" cy="73.252" rx="90.1381" ry="73.252" transform="matrix(0.902443 0.43081 0.43081 -0.902443 2093 1202.21)" fill="#FFF5DC"/>
<ellipse cx="1377.73" cy="731.302" rx="80" ry="57" transform="rotate(-22.5293 1377.73 731.302)" fill="#FFF5DC"/>
<ellipse cx="80" cy="57" rx="80" ry="57" transform="matrix(0.923684 0.383156 0.383156 -0.923684 2360 753.3)" fill="#FFF5DC"/>
<path d="M2423 787.5C2423 1034.65 2321 1235 1923.5 1235C1554.5 1235 1424 1034.65 1424 787.5C1424 540.353 1647.63 340 1923.5 340C2199.37 340 2423 540.353 2423 787.5Z" fill="#FFF9E9"/>
<path fill-rule="evenodd" clip-rule="evenodd" d="M2406.79 675.5L2407.5 676.453C2352.37 483.023 2156.58 340 1923.5 340C1686.6 340 1488.22 487.748 1436.9 686H1437V686.855C1486.91 733.032 1626.39 797.591 1785.59 686.801C1823.49 646.956 1929.6 591.173 2050.87 686.801C2147.38 739.15 2286.42 795.5 2406.79 675.5Z" fill="#DAA41A"/>
<ellipse cx="1916" cy="725" rx="152" ry="102" fill="#FFF0C7"/>
<path d="M1916 719V763.5" stroke="#101010" stroke-width="3"/>
<path d="M1865 749C1882.69 760.319 1928.05 776.166 1968 749" stroke="#101010" stroke-width="3"/>
<ellipse cx="1916.5" cy="685" rx="51.5" ry="37" fill="#4D4D4D"/>
<ellipse cx="1678.53" cy="652.977" rx="60.69" ry="66.7058" transform="rotate(23.9272 1678.53 652.977)" fill="#303030"/>
<ellipse cx="1683.49" cy="631.472" rx="19.734" ry="25" transform="rotate(21.3716 1683.49 631.472)" fill="#FDFDFD"/>
<ellipse cx="60.69" cy="66.7058" rx="60.69" ry="66.7058" transform="matrix(-0.914061 0.405576 0.405576 0.914061 2185.95 569)" fill="#303030"/>
<ellipse cx="19.734" cy="25" rx="19.734" ry="25" transform="matrix(-0.931236 0.364416 0.364416 0.931236 2157.84 601.611)" fill="#FDFDFD"/>
<rect x="1607" y="567" width="157" height="56" fill="#DAA41A"/>
<rect x="1614" y="693" width="113" height="26" fill="#DAA41A"/>
<path d="M2097 693H2222V722L2149 725L2097 693Z" fill="#DAA41A"/>
<rect x="2097" y="567" width="157" height="56" fill="#DAA41A"/>
<rect x="10240" width="1280" height="1280" fill="#CEDCFF"/>
<circle cx="11206" cy="408" r="88" fill="#C08A00"/>
<circle cx="10584" cy="408" r="88" fill="#C08A00"/>
<ellipse cx="10591.5" cy="421" rx="80.5" ry="78" fill="#FFEDBF"/>
<ellipse cx="11198.5" cy="421" rx="80.5" ry="78" fill="#FFEDBF"/>
<ellipse cx="10592.9" cy="1174.94" rx="90.1381" ry="73.252" transform="rotate(-25.519 10592.9 1174.94)" fill="#FFF5DC"/>
<ellipse cx="90.1381" cy="73.252" rx="90.1381" ry="73.252" transform="matrix(0.902443 0.43081 0.43081 -0.902443 11053 1202.21)" fill="#FFF5DC"/>
<ellipse cx="10337.7" cy="731.302" rx="80" ry="57" transform="rotate(-22.5293 10337.7 731.302)" fill="#FFF5DC"/>
<ellipse cx="80" cy="57" rx="80" ry="57" transform="matrix(0.923684 0.383156 0.383156 -0.923684 11320 753.3)" fill="#FFF5DC"/>
<path d="M11383 787.5C11383 1034.65 11281 1235 10883.5 1235C10514.5 1235 10384 1034.65 10384 787.5C10384 540.353 10607.6 340 10883.5 340C11159.4 340 11383 540.353 11383 787.5Z" fill="#FFF9E9"/>
<path fill-rule="evenodd" clip-rule="evenodd" d="M11366.8 675.5L11367.5 676.453C11312.4 483.023 11116.6 340 10883.5 340C10646.6 340 10448.2 487.748 10396.9 686H10397V686.855C10446.9 733.032 10586.4 797.591 10745.6 686.801C10783.5 646.956 10889.6 591.173 11010.9 686.801C11107.4 739.15 11246.4 795.5 11366.8 675.5Z" fill="#DAA41A"/>
<ellipse cx="10876" cy="725" rx="152" ry="102" fill="#FFF0C7"/>
<path d="M10876 719V763.5" stroke="#101010" stroke-width="3"/>
<path d="M10825 749C10842.7 760.319 10888 776.166 10928 749" stroke="#101010" stroke-width="3"/>
<ellipse cx="10876.5" cy="685" rx="51.5" ry="37" fill="#4D4D4D"/>
<ellipse cx="10638.5" cy="652.977" rx="60.69" ry="66.7058" transform="rotate(23.9272 10638.5 652.977)" fill="#303030"/>
<ellipse cx="10643.5" cy="631.472" rx="19.734" ry="25" transform="rotate(21.3716 10643.5 631.472)" fill="#FDFDFD"/>
<ellipse cx="60.69" cy="66.7058" rx="60.69" ry="66.7058" transform="matrix(-0.914061 0.405576 0.405576 0.914061 11145.9 569)" fill="#303030"/>
<ellipse cx="19.734" cy="25" rx="19.734" ry="25" transform="matrix(-0.931236 0.364416 0.364416 0.931236 11117.8 601.611)" fill="#FDFDFD"/>
<rect x="10567" y="567" width="157" height="56" fill="#DAA41A"/>
<rect x="10574" y="693" width="113" height="26" fill="#DAA41A"/>
<path d="M11057 693H11182V722L11109 725L11057 693Z" fill="#DAA41A"/>
<rect x="11057" y="567" width="157" height="56" fill="#DAA41A"/>
<rect x="2560" width="1280" height="1280" fill="#CEDCFF"/>
<circle cx="3526" cy="408" r="88" fill="#C08A00"/>
<circle cx="2904" cy="408" r="88" fill="#C08A00"/>
<ellipse cx="2911.5" cy="421" rx="80.5" ry="78" fill="#FFEDBF"/>
<ellipse cx="3518.5" cy="421" rx="80.5" ry="78" fill="#FFEDBF"/>
<ellipse cx="2912.9" cy="1174.94" rx="90.1381" ry="73.252" transform="rotate(-25.519 2912.9 1174.94)" fill="#FFF5DC"/>
<ellipse cx="90.1381" cy="73.252" rx="90.1381" ry="73.252" transform="matrix(0.902443 0.43081 0.43081 -0.902443 3373 1202.21)" fill="#FFF5DC"/>
<ellipse cx="2657.73" cy="731.302" rx="80" ry="57" transform="rotate(-22.5293 2657.73 731.302)" fill="#FFF5DC"/>
<ellipse cx="80" cy="57" rx="80" ry="57" transform="matrix(0.923684 0.383156 0.383156 -0.923684 3640 753.3)" fill="#FFF5DC"/>
<path d="M3703 787.5C3703 1034.65 3601 1235 3203.5 1235C2834.5 1235 2704 1034.65 2704 787.5C2704 540.353 2927.63 340 3203.5 340C3479.37 340 3703 540.353 3703 787.5Z" fill="#FFF9E9"/>
<path fill-rule="evenodd" clip-rule="evenodd" d="M3686.79 675.5L3687.5 676.453C3632.37 483.023 3436.58 340 3203.5 340C2966.6 340 2768.22 487.748 2716.9 686H2717V686.855C2766.91 733.032 2906.39 797.591 3065.59 686.801C3103.49 646.956 3209.6 591.173 3330.87 686.801C3427.38 739.15 3566.42 795.5 3686.79 675.5Z" fill="#DAA41A"/>
<ellipse cx="3196" cy="725" rx="152" ry="102" fill="#FFF0C7"/>
<path d="M3196 719V763.5" stroke="#101010" stroke-width="3"/>
<path d="M3145 749C3162.69 760.319 3208.05 776.166 3248 749" stroke="#101010" stroke-width="3"/>
<ellipse cx="3196.5" cy="685" rx="51.5" ry="37" fill="#4D4D4D"/>
<ellipse cx="2958.53" cy="652.977" rx="60.69" ry="66.7058" transform="rotate(23.9272 2958.53 652.977)" fill="#303030"/>
<ellipse cx="60.69" cy="66.7058" rx="60.69" ry="66.7058" transform="matrix(-0.914061 0.405576 0.405576 0.914061 3465.95 569)" fill="#303030"/>
<path d="M2887 567H3044V637C3044 637 3039 618.283 2963 617.535C2887 616.786 2887 637 2887 637V567Z" fill="#DAA41A"/>
<path d="M3363 567H3520V637C3520 637 3515 618.283 3439 617.535C3363 616.786 3363 637 3363 637V567Z" fill="#DAA41A"/>
<path d="M2893 672.446C2893 672.446 2912.43 654 2958.26 654C3004.09 654 3027 672.446 3027 672.446L3007.07 719H2894.49L2893 672.446Z" fill="#DAA41A"/>
<path d="M3375 672.446C3375 672.446 3394.43 654 3440.26 654C3486.09 654 3509 672.446 3509 672.446L3485.5 732.5L3390 711.5L3375 672.446Z" fill="#DAA41A"/>
<rect x="8960" width="1280" height="1280" fill="#CEDCFF"/>
<circle cx="9926" cy="408" r="88" fill="#C08A00"/>
<circle cx="9304" cy="408" r="88" fill="#C08A00"/>
<ellipse cx="9311.5" cy="421" rx="80.5" ry="78" fill="#FFEDBF"/>
<ellipse cx="9918.5" cy="421" rx="80.5" ry="78" fill="#FFEDBF"/>
<ellipse cx="9312.9" cy="1174.94" rx="90.1381" ry="73.252" transform="rotate(-25.519 9312.9 1174.94)" fill="#FFF5DC"/>
<ellipse cx="90.1381" cy="73.252" rx="90.1381" ry="73.252" transform="matrix(0.902443 0.43081 0.43081 -0.902443 9773 1202.21)" fill="#FFF5DC"/>
<ellipse cx="9057.73" cy="731.302" rx="80" ry="57" transform="rotate(-22.5293 9057.73 731.302)" fill="#FFF5DC"/>
<ellipse cx="80" cy="57" rx="80" ry="57" transform="matrix(0.923684 0.383156 0.383156 -0.923684 10040 753.3)" fill="#FFF5DC"/>
<path d="M10103 787.5C10103 1034.65 10001 1235 9603.5 1235C9234.5 1235 9104 1034.65 9104 787.5C9104 540.353 9327.63 340 9603.5 340C9879.37 340 10103 540.353 10103 787.5Z" fill="#FFF9E9"/>
<path fill-rule="evenodd" clip-rule="evenodd" d="M10086.8 675.5L10087.5 676.453C10032.4 483.023 9836.58 340 9603.5 340C9366.6 340 9168.22 487.748 9116.9 686H9117V686.855C9166.91 733.032 9306.39 797.591 9465.59 686.801C9503.49 646.956 9609.6 591.173 9730.87 686.801C9827.38 739.15 9966.41 795.5 10086.8 675.5Z" fill="#DAA41A"/>
<ellipse cx="9596" cy="725" rx="152" ry="102" fill="#FFF0C7"/>
<path d="M9596 719V763.5" stroke="#101010" stroke-width="3"/>
<path d="M9545 749C9562.69 760.319 9608.05 776.166 9648 749" stroke="#101010" stroke-width="3"/>
<ellipse cx="9596.5" cy="685" rx="51.5" ry="37" fill="#4D4D4D"/>
<ellipse cx="9358.53" cy="652.977" rx="60.69" ry="66.7058" transform="rotate(23.9272 9358.53 652.977)" fill="#303030"/>
<ellipse cx="60.69" cy="66.7058" rx="60.69" ry="66.7058" transform="matrix(-0.914061 0.405576 0.405576 0.914061 9865.95 569)" fill="#303030"/>
<path d="M9287 567H9444V637C9444 637 9439 618.283 9363 617.535C9287 616.786 9287 637 9287 637V567Z" fill="#DAA41A"/>
<path d="M9763 567H9920V637C9920 637 9915 618.283 9839 617.535C9763 616.786 9763 637 9763 637V567Z" fill="#DAA41A"/>
<path d="M9293 672.446C9293 672.446 9312.43 654 9358.26 654C9404.09 654 9427 672.446 9427 672.446L9407.07 719H9294.49L9293 672.446Z" fill="#DAA41A"/>
<path d="M9775 672.446C9775 672.446 9794.43 654 9840.26 654C9886.09 654 9909 672.446 9909 672.446L9885.5 732.5L9790 711.5L9775 672.446Z" fill="#DAA41A"/>
<rect x="3840" width="1280" height="1280" fill="#CEDCFF"/>
<circle cx="4806" cy="408" r="88" fill="#C08A00"/>
<circle cx="4184" cy="408" r="88" fill="#C08A00"/>
<ellipse cx="4191.5" cy="421" rx="80.5" ry="78" fill="#FFEDBF"/>
<ellipse cx="4798.5" cy="421" rx="80.5" ry="78" fill="#FFEDBF"/>
<ellipse cx="4192.9" cy="1174.94" rx="90.1381" ry="73.252" transform="rotate(-25.519 4192.9 1174.94)" fill="#FFF5DC"/>
<ellipse cx="90.1381" cy="73.252" rx="90.1381" ry="73.252" transform="matrix(0.902443 0.43081 0.43081 -0.902443 4653 1202.21)" fill="#FFF5DC"/>
<ellipse cx="3937.73" cy="731.302" rx="80" ry="57" transform="rotate(-22.5293 3937.73 731.302)" fill="#FFF5DC"/>
<ellipse cx="80" cy="57" rx="80" ry="57" transform="matrix(0.923684 0.383156 0.383156 -0.923684 4920 753.3)" fill="#FFF5DC"/>
<path d="M4983 787.5C4983 1034.65 4881 1235 4483.5 1235C4114.5 1235 3984 1034.65 3984 787.5C3984 540.353 4207.63 340 4483.5 340C4759.37 340 4983 540.353 4983 787.5Z" fill="#FFF9E9"/>
<path fill-rule="evenodd" clip-rule="evenodd" d="M4966.79 675.5L4967.5 676.453C4912.37 483.023 4716.58 340 4483.5 340C4246.6 340 4048.22 487.748 3996.9 686H3997V686.855C4046.91 733.032 4186.39 797.591 4345.59 686.801C4383.49 646.956 4489.6 591.173 4610.87 686.801C4707.38 739.15 4846.42 795.5 4966.79 675.5Z" fill="#DAA41A"/>
<ellipse cx="4476" cy="725" rx="152" ry="102" fill="#FFF0C7"/>
<path d="M4476 719V763.5" stroke="#101010" stroke-width="3"/>
<path d="M4425 749C4442.69 760.319 4488.05 776.166 4528 749" stroke="#101010" stroke-width="3"/>
<ellipse cx="4476.5" cy="685" rx="51.5" ry="37" fill="#4D4D4D"/>
<ellipse cx="4238.53" cy="652.977" rx="60.69" ry="66.7058" transform="rotate(23.9272 4238.53 652.977)" fill="#303030"/>
<ellipse cx="60.69" cy="66.7058" rx="60.69" ry="66.7058" transform="matrix(-0.914061 0.405576 0.405576 0.914061 4745.95 569)" fill="#303030"/>
<path d="M4167 567H4324V654C4324 654 4302.5 609.5 4240 609.5C4177.5 609.5 4167 654 4167 654V567Z" fill="#DAA41A"/>
<path d="M4643 567H4800V654C4800 654 4775 622 4714.5 622C4654 622 4643 654 4643 654V567Z" fill="#DAA41A"/>
<path d="M4173 663.27C4173 663.27 4181.5 639.5 4238.5 639.5C4295.5 639.5 4307 663.27 4307 663.27L4264 724L4174.49 722L4173 663.27Z" fill="#DAA41A"/>
<path d="M4655 668.155C4655 668.155 4674.43 648 4720.26 648C4766.09 648 4789 668.155 4789 668.155L4766 737L4670 710.827L4655 668.155Z" fill="#DAA41A"/>
<rect x="6400" width="1280" height="1280" fill="#CEDCFF"/>
<circle cx="7366" cy="408" r="88" fill="#C08A00"/>
<circle cx="6744" cy="408" r="88" fill="#C08A00"/>
<ellipse cx="6751.5" cy="421" rx="80.5" ry="78" fill="#FFEDBF"/>
<ellipse cx="7358.5" cy="421" rx="80.5" ry="78" fill="#FFEDBF"/>
<ellipse cx="6752.9" cy="1174.94" rx="90.1381" ry="73.252" transform="rotate(-25.519 6752.9 1174.94)" fill="#FFF5DC"/>
<ellipse cx="90.1381" cy="73.252" rx="90.1381" ry="73.252" transform="matrix(0.902443 0.43081 0.43081 -0.902443 7213 1202.21)" fill="#FFF5DC"/>
<ellipse cx="6497.73" cy="731.302" rx="80" ry="57" transform="rotate(-22.5293 6497.73 731.302)" fill="#FFF5DC"/>
<ellipse cx="80" cy="57" rx="80" ry="57" transform="matrix(0.923684 0.383156 0.383156 -0.923684 7480 753.3)" fill="#FFF5DC"/>
<path d="M7543 787.5C7543 1034.65 7441 1235 7043.5 1235C6674.5 1235 6544 1034.65 6544 787.5C6544 540.353 6767.63 340 7043.5 340C7319.37 340 7543 540.353 7543 787.5Z" fill="#FFF9E9"/>
<path fill-rule="evenodd" clip-rule="evenodd" d="M7526.79 675.5L7527.5 676.453C7472.37 483.023 7276.58 340 7043.5 340C6806.6 340 6608.22 487.748 6556.9 686H6557V686.855C6606.91 733.032 6746.39 797.591 6905.59 686.801C6943.49 646.956 7049.6 591.173 7170.87 686.801C7267.38 739.15 7406.42 795.5 7526.79 675.5Z" fill="#DAA41A"/>
<ellipse cx="7036" cy="725" rx="152" ry="102" fill="#FFF0C7"/>
<path d="M7036 719V763.5" stroke="#101010" stroke-width="3"/>
<path d="M6985 749C7002.69 760.319 7048.05 776.166 7088 749" stroke="#101010" stroke-width="3"/>
<ellipse cx="7036.5" cy="685" rx="51.5" ry="37" fill="#4D4D4D"/>
<ellipse cx="6798.53" cy="652.977" rx="60.69" ry="66.7058" transform="rotate(23.9272 6798.53 652.977)" fill="#303030"/>
<ellipse cx="60.69" cy="66.7058" rx="60.69" ry="66.7058" transform="matrix(-0.914061 0.405576 0.405576 0.914061 7305.95 569)" fill="#303030"/>
<path d="M6727 567H6884V654C6884 654 6862.5 609.5 6800 609.5C6737.5 609.5 6727 654 6727 654V567Z" fill="#DAA41A"/>
<path d="M7203 567H7360V654C7360 654 7335 622 7274.5 622C7214 622 7203 654 7203 654V567Z" fill="#DAA41A"/>
<path d="M6733 663.27C6733 663.27 6741.5 639.5 6798.5 639.5C6855.5 639.5 6867 663.27 6867 663.27L6824 724L6734.49 722L6733 663.27Z" fill="#DAA41A"/>
<path d="M7215 668.155C7215 668.155 7234.43 648 7280.26 648C7326.09 648 7349 668.155 7349 668.155L7326 737L7230 710.827L7215 668.155Z" fill="#DAA41A"/>
<rect x="5120" width="1280" height="1280" fill="#CEDCFF"/>
<circle cx="6086" cy="408" r="88" fill="#C08A00"/>
<circle cx="5464" cy="408" r="88" fill="#C08A00"/>
<ellipse cx="5471.5" cy="421" rx="80.5" ry="78" fill="#FFEDBF"/>
<ellipse cx="6078.5" cy="421" rx="80.5" ry="78" fill="#FFEDBF"/>
<ellipse cx="5472.9" cy="1174.94" rx="90.1381" ry="73.252" transform="rotate(-25.519 5472.9 1174.94)" fill="#FFF5DC"/>
<ellipse cx="90.1381" cy="73.252" rx="90.1381" ry="73.252" transform="matrix(0.902443 0.43081 0.43081 -0.902443 5933 1202.21)" fill="#FFF5DC"/>
<ellipse cx="5217.73" cy="731.302" rx="80" ry="57" transform="rotate(-22.5293 5217.73 731.302)" fill="#FFF5DC"/>
<ellipse cx="80" cy="57" rx="80" ry="57" transform="matrix(0.864865 -0.502005 -0.502005 -0.864865 6257.23 782.916)" fill="#FFF5DC"/>
<path d="M6263 787.5C6263 1034.65 6161 1235 5763.5 1235C5394.5 1235 5264 1034.65 5264 787.5C5264 540.353 5487.63 340 5763.5 340C6039.37 340 6263 540.353 6263 787.5Z" fill="#FFF9E9"/>
<path fill-rule="evenodd" clip-rule="evenodd" d="M6246.79 675.5L6247.5 676.453C6192.37 483.023 5996.58 340 5763.5 340C5526.6 340 5328.22 487.748 5276.9 686H5277V686.855C5326.91 733.032 5466.39 797.591 5625.59 686.801C5663.49 646.956 5769.6 591.173 5890.87 686.801C5987.38 739.15 6126.42 795.5 6246.79 675.5Z" fill="#DAA41A"/>
<ellipse cx="5756" cy="725" rx="152" ry="102" fill="#FFF0C7"/>
<path d="M5756 719V763.5" stroke="#101010" stroke-width="3"/>
<path d="M5705 749C5722.69 760.319 5768.05 776.166 5808 749" stroke="#101010" stroke-width="3"/>
<ellipse cx="5756.5" cy="685" rx="51.5" ry="37" fill="#4D4D4D"/>
<ellipse cx="5518.53" cy="652.977" rx="60.69" ry="66.7058" transform="rotate(23.9272 5518.53 652.977)" fill="#303030"/>
<ellipse cx="60.69" cy="66.7058" rx="60.69" ry="66.7058" transform="matrix(-0.914061 0.405576 0.405576 0.914061 6025.95 569)" fill="#303030"/>
<path d="M5447 567H5604V654C5604 654 5582.5 609.5 5520 609.5C5457.5 609.5 5447 654 5447 654V567Z" fill="#DAA41A"/>
<path d="M5923 567H6080V654C6080 654 6055 622 5994.5 622C5934 622 5923 654 5923 654V567Z" fill="#DAA41A"/>
<path d="M5453 663.27C5453 663.27 5461.5 639.5 5518.5 639.5C5575.5 639.5 5587 663.27 5587 663.27L5544 724L5454.49 722L5453 663.27Z" fill="#DAA41A"/>
<path d="M5935 668.155C5935 668.155 5954.43 648 6000.26 648C6046.09 648 6069 668.155 6069 668.155L6046 737L5950 710.827L5935 668.155Z" fill="#DAA41A"/>
<rect x="7680" width="1280" height="1280" fill="#CEDCFF"/>
<circle cx="8646" cy="408" r="88" fill="#C08A00"/>
<circle cx="8024" cy="408" r="88" fill="#C08A00"/>
<ellipse cx="8031.5" cy="421" rx="80.5" ry="78" fill="#FFEDBF"/>
<ellipse cx="8638.5" cy="421" rx="80.5" ry="78" fill="#FFEDBF"/>
<ellipse cx="8032.9" cy="1174.94" rx="90.1381" ry="73.252" transform="rotate(-25.519 8032.9 1174.94)" fill="#FFF5DC"/>
<ellipse cx="90.1381" cy="73.252" rx="90.1381" ry="73.252" transform="matrix(0.902443 0.43081 0.43081 -0.902443 8493 1202.21)" fill="#FFF5DC"/>
<ellipse cx="7777.73" cy="731.302" rx="80" ry="57" transform="rotate(-22.5293 7777.73 731.302)" fill="#FFF5DC"/>
<ellipse cx="80" cy="57" rx="80" ry="57" transform="matrix(0.864865 -0.502005 -0.502005 -0.864865 8817.23 782.916)" fill="#FFF5DC"/>
<path d="M8823 787.5C8823 1034.65 8721 1235 8323.5 1235C7954.5 1235 7824 1034.65 7824 787.5C7824 540.353 8047.63 340 8323.5 340C8599.37 340 8823 540.353 8823 787.5Z" fill="#FFF9E9"/>
<path fill-rule="evenodd" clip-rule="evenodd" d="M8806.79 675.5L8807.5 676.453C8752.37 483.023 8556.58 340 8323.5 340C8086.6 340 7888.22 487.748 7836.9 686H7837V686.855C7886.91 733.032 8026.39 797.591 8185.59 686.801C8223.49 646.956 8329.6 591.173 8450.87 686.801C8547.38 739.15 8686.42 795.5 8806.79 675.5Z" fill="#DAA41A"/>
<ellipse cx="8316" cy="725" rx="152" ry="102" fill="#FFF0C7"/>
<path d="M8316 719V763.5" stroke="#101010" stroke-width="3"/>
<path d="M8265 749C8282.69 760.319 8328.05 776.166 8368 749" stroke="#101010" stroke-width="3"/>
<ellipse cx="8316.5" cy="685" rx="51.5" ry="37" fill="#4D4D4D"/>
<ellipse cx="8078.53" cy="652.977" rx="60.69" ry="66.7058" transform="rotate(23.9272 8078.53 652.977)" fill="#303030"/>
<ellipse cx="60.69" cy="66.7058" rx="60.69" ry="66.7058" transform="matrix(-0.914061 0.405576 0.405576 0.914061 8585.95 569)" fill="#303030"/>
<path d="M8007 567H8164V654C8164 654 8142.5 609.5 8080 609.5C8017.5 609.5 8007 654 8007 654V567Z" fill="#DAA41A"/>
<path d="M8483 567H8640V654C8640 654 8615 622 8554.5 622C8494 622 8483 654 8483 654V567Z" fill="#DAA41A"/>
<path d="M8013 663.27C8013 663.27 8021.5 639.5 8078.5 639.5C8135.5 639.5 8147 663.27 8147 663.27L8104 724L8014.49 722L8013 663.27Z" fill="#DAA41A"/>
<path d="M8495 668.155C8495 668.155 8514.43 648 8560.26 648C8606.09 648 8629 668.155 8629 668.155L8606 737L8510 710.827L8495 668.155Z" fill="#DAA41A"/>
<rect width="1280" height="1280" fill="#CEDCFF"/>
<circle cx="966" cy="408" r="88" fill="#C08A00"/>
<circle cx="344" cy="408" r="88" fill="#C08A00"/>
<ellipse cx="351.5" cy="421" rx="80.5" ry="78" fill="#FFEDBF"/>
<ellipse cx="958.5" cy="421" rx="80.5" ry="78" fill="#FFEDBF"/>
<ellipse cx="352.902" cy="1174.94" rx="90.1381" ry="73.252" transform="rotate(-25.519 352.902 1174.94)" fill="#FFF5DC"/>
<ellipse cx="90.1381" cy="73.252" rx="90.1381" ry="73.252" transform="matrix(0.902443 0.43081 0.43081 -0.902443 813 1202.21)" fill="#FFF5DC"/>
<ellipse cx="97.7346" cy="731.302" rx="80" ry="57" transform="rotate(-22.5293 97.7346 731.302)" fill="#FFF5DC"/>
<ellipse cx="80" cy="57" rx="80" ry="57" transform="matrix(0.923684 0.383156 0.383156 -0.923684 1080 753.3)" fill="#FFF5DC"/>
<path d="M1143 787.5C1143 1034.65 1041 1235 643.5 1235C274.5 1235 144 1034.65 144 787.5C144 540.353 367.634 340 643.5 340C919.366 340 1143 540.353 1143 787.5Z" fill="#FFF9E9"/>
<path fill-rule="evenodd" clip-rule="evenodd" d="M1126.79 675.5L1127.5 676.453C1072.37 483.023 876.58 340 643.5 340C406.602 340 208.222 487.748 156.904 686H157V686.855C206.906 733.032 346.387 797.591 505.593 686.801C543.49 646.956 649.602 591.173 770.872 686.801C867.383 739.15 1006.42 795.5 1126.79 675.5Z" fill="#DAA41A"/>
<ellipse cx="636" cy="725" rx="152" ry="102" fill="#FFF0C7"/>
<path d="M636 719V763.5" stroke="#101010" stroke-width="3"/>
<path d="M585 749C602.687 760.319 648.048 776.166 688 749" stroke="#101010" stroke-width="3"/>
<ellipse cx="636.5" cy="685" rx="51.5" ry="37" fill="#4D4D4D"/>
<ellipse cx="398.529" cy="652.977" rx="60.69" ry="66.7058" transform="rotate(23.9272 398.529 652.977)" fill="#303030"/>
<ellipse cx="403.487" cy="631.472" rx="19.734" ry="25" transform="rotate(21.3716 403.487 631.472)" fill="#FDFDFD"/>
<ellipse cx="60.69" cy="66.7058" rx="60.69" ry="66.7058" transform="matrix(-0.914061 0.405576 0.405576 0.914061 905.949 569)" fill="#303030"/>
<ellipse cx="19.734" cy="25" rx="19.734" ry="25" transform="matrix(-0.931236 0.364416 0.364416 0.931236 877.837 601.611)" fill="#FDFDFD"/>
<rect x="11520" width="1280" height="1280" fill="#CEDCFF"/>
<circle cx="12486" cy="408" r="88" fill="#C08A00"/>
<circle cx="11864" cy="408" r="88" fill="#C08A00"/>
<ellipse cx="11871.5" cy="421" rx="80.5" ry="78" fill="#FFEDBF"/>
<ellipse cx="12478.5" cy="421" rx="80.5" ry="78" fill="#FFEDBF"/>
<ellipse cx="11872.9" cy="1174.94" rx="90.1381" ry="73.252" transform="rotate(-25.519 11872.9 1174.94)" fill="#FFF5DC"/>
<ellipse cx="90.1381" cy="73.252" rx="90.1381" ry="73.252" transform="matrix(0.902443 0.43081 0.43081 -0.902443 12333 1202.21)" fill="#FFF5DC"/>
<ellipse cx="11617.7" cy="731.302" rx="80" ry="57" transform="rotate(-22.5293 11617.7 731.302)" fill="#FFF5DC"/>
<ellipse cx="80" cy="57" rx="80" ry="57" transform="matrix(0.923684 0.383156 0.383156 -0.923684 12600 753.3)" fill="#FFF5DC"/>
<path d="M12663 787.5C12663 1034.65 12561 1235 12163.5 1235C11794.5 1235 11664 1034.65 11664 787.5C11664 540.353 11887.6 340 12163.5 340C12439.4 340 12663 540.353 12663 787.5Z" fill="#FFF9E9"/>
<path fill-rule="evenodd" clip-rule="evenodd" d="M12646.8 675.5L12647.5 676.453C12592.4 483.023 12396.6 340 12163.5 340C11926.6 340 11728.2 487.748 11676.9 686H11677V686.855C11726.9 733.032 11866.4 797.591 12025.6 686.801C12063.5 646.956 12169.6 591.173 12290.9 686.801C12387.4 739.15 12526.4 795.5 12646.8 675.5Z" fill="#DAA41A"/>
<ellipse cx="12156" cy="725" rx="152" ry="102" fill="#FFF0C7"/>
<path d="M12156 719V763.5" stroke="#101010" stroke-width="3"/>
<path d="M12105 749C12122.7 760.319 12168 776.166 12208 749" stroke="#101010" stroke-width="3"/>
<ellipse cx="12156.5" cy="685" rx="51.5" ry="37" fill="#4D4D4D"/>
<ellipse cx="11918.5" cy="652.977" rx="60.69" ry="66.7058" transform="rotate(23.9272 11918.5 652.977)" fill="#303030"/>
<ellipse cx="11923.5" cy="631.472" rx="19.734" ry="25" transform="rotate(21.3716 11923.5 631.472)" fill="#FDFDFD"/>
<ellipse cx="60.69" cy="66.7058" rx="60.69" ry="66.7058" transform="matrix(-0.914061 0.405576 0.405576 0.914061 12425.9 569)" fill="#303030"/>
<ellipse cx="19.734" cy="25" rx="19.734" ry="25" transform="matrix(-0.931236 0.364416 0.364416 0.931236 12397.8 601.611)" fill="#FDFDFD"/>
</svg>
