<svg width="64" height="64" viewBox="0 0 64 64" fill="none" xmlns="http://www.w3.org/2000/svg">
<g filter="url(#filter0_d_410_43)">
<path d="M4 25L13 50V25H4Z" fill="#26F726"/>
<path d="M4 25L13 50V25H4Z" stroke="black" stroke-width="3"/>
</g>
<g filter="url(#filter1_d_410_43)">
<path fill-rule="evenodd" clip-rule="evenodd" d="M13 20L18.5 14H28.5L34 20H59.5V49H13V20Z" fill="#FFFA7C"/>
<path d="M18.5 14V12.5H17.8401L17.3943 12.9864L18.5 14ZM13 20L11.8943 18.9864L11.5 19.4165V20H13ZM28.5 14L29.6057 12.9864L29.1599 12.5H28.5V14ZM34 20L32.8943 21.0136L33.3401 21.5H34V20ZM59.5 20H61V18.5H59.5V20ZM59.5 49V50.5H61V49H59.5ZM13 49H11.5V50.5H13V49ZM17.3943 12.9864L11.8943 18.9864L14.1057 21.0136L19.6057 15.0136L17.3943 12.9864ZM28.5 12.5H18.5V15.5H28.5V12.5ZM35.1057 18.9864L29.6057 12.9864L27.3943 15.0136L32.8943 21.0136L35.1057 18.9864ZM59.5 18.5H34V21.5H59.5V18.5ZM61 49V20H58V49H61ZM13 50.5H59.5V47.5H13V50.5ZM11.5 20V49H14.5V20H11.5Z" fill="black"/>
</g>
<defs>
<filter id="filter0_d_410_43" x="1.86575" y="22.5" width="16.6342" height="31.0081" filterUnits="userSpaceOnUse" color-interpolation-filters="sRGB">
<feFlood flood-opacity="0" result="BackgroundImageFix"/>
<feColorMatrix in="SourceAlpha" type="matrix" values="0 0 0 0 0 0 0 0 0 0 0 0 0 0 0 0 0 0 127 0" result="hardAlpha"/>
<feOffset dx="2" dy="1"/>
<feGaussianBlur stdDeviation="1"/>
<feComposite in2="hardAlpha" operator="out"/>
<feColorMatrix type="matrix" values="0 0 0 0 0 0 0 0 0 0 0 0 0 0 0 0 0 0 0.25 0"/>
<feBlend mode="normal" in2="BackgroundImageFix" result="effect1_dropShadow_410_43"/>
<feBlend mode="normal" in="SourceGraphic" in2="effect1_dropShadow_410_43" result="shape"/>
</filter>
<filter id="filter1_d_410_43" x="11.5" y="12.5" width="52.5" height="41" filterUnits="userSpaceOnUse" color-interpolation-filters="sRGB">
<feFlood flood-opacity="0" result="BackgroundImageFix"/>
<feColorMatrix in="SourceAlpha" type="matrix" values="0 0 0 0 0 0 0 0 0 0 0 0 0 0 0 0 0 0 127 0" result="hardAlpha"/>
<feOffset dx="2" dy="2"/>
<feGaussianBlur stdDeviation="0.5"/>
<feComposite in2="hardAlpha" operator="out"/>
<feColorMatrix type="matrix" values="0 0 0 0 0 0 0 0 0 0 0 0 0 0 0 0 0 0 0.25 0"/>
<feBlend mode="normal" in2="BackgroundImageFix" result="effect1_dropShadow_410_43"/>
<feBlend mode="normal" in="SourceGraphic" in2="effect1_dropShadow_410_43" result="shape"/>
</filter>
</defs>
</svg>
