<svg width="227" height="244" viewBox="0 0 227 244" fill="none" xmlns="http://www.w3.org/2000/svg">
<g id="wave1">
<g id="body-top">
<path id="torso" d="M191.759 163.113C198.986 216.51 164.42 219.656 116.532 226.137C68.6436 232.619 43.4041 237.567 36.1771 184.17C28.95 130.773 48.2658 52.3734 97.3838 84.6624C133.267 39.2001 184.531 109.716 191.759 163.113Z" fill="white"/>
<g id="head">
<path id="head head" d="M163.523 66.3362C167.501 95.7269 140.341 105.191 101.525 110.445C62.7098 115.698 37.685 113.297 33.707 83.9063C29.7291 54.5156 50.2688 23.7784 89.0842 18.5248C127.9 13.2713 159.545 36.9454 163.523 66.3362Z" fill="white"/>
<path id="ear-left" d="M63.327 24.1928C68.6117 29.463 61.2533 32.9288 54.5896 39.6108C47.9259 46.2929 44.4803 53.6608 39.1956 48.3906C33.9109 43.1204 35.0288 33.4312 41.6925 26.7491C48.3562 20.0671 58.0423 18.9226 63.327 24.1928Z" fill="white"/>
<path id="ear-right" d="M145.859 31.9502C142.494 38.6119 136.911 32.6964 128.488 28.4414C120.065 24.1864 111.991 23.2033 115.356 16.5415C118.721 9.87981 128.277 7.92877 136.701 12.1838C145.124 16.4388 149.224 25.2885 145.859 31.9502Z" fill="white"/>
<g id="face">
<path id="snout" d="M126.974 75.8836C128.418 86.5558 118.622 95.6826 102.203 97.9048C85.7846 100.127 74.4106 93.8656 72.9661 83.1933C71.5217 72.5211 80.5538 61.4794 96.9727 59.2572C113.391 57.035 125.529 65.2113 126.974 75.8836Z" fill="#FFF5DA"/>
<path id="nose" d="M109.416 69.1779C110.119 74.3772 105.81 79.2527 99.7893 80.0675C93.769 80.8823 88.3182 77.328 87.6145 72.1287C86.9108 66.9294 91.2207 62.054 97.2409 61.2391C103.261 60.4243 108.712 63.9786 109.416 69.1779Z" fill="#8E590A"/>
<circle id="eye left" cx="84.2503" cy="58.4563" r="3.5" transform="rotate(-7.70794 84.2503 58.4563)" fill="black"/>
<circle id="eye right" cx="107.042" cy="55.3715" r="3.5" transform="rotate(-7.70794 107.042 55.3715)" fill="black"/>
</g>
</g>
<path id="arm-left" d="M48.441 164.765C52.6197 169.35 57.5567 173.476 60.192 179.092C68.9546 197.764 55.514 202.108 44.1552 203.646C31.3003 205.386 10.913 191.358 6.93053 161.934C2.94809 132.51 29.6168 106.72 42.4718 104.98C54.3121 103.378 25.561 139.663 48.441 164.765Z" fill="#F4F4F4"/>
<path id="arm-right" d="M175.8 41.661C174.122 35.689 171.561 29.7862 171.726 23.5852C172.272 2.96628 186.233 5.11416 197.075 8.83658C209.344 13.0493 221.27 34.7326 211.627 62.8156C201.985 90.8986 166.58 101.982 154.311 97.7691C143.01 93.8889 184.985 74.3608 175.8 41.661Z" fill="#F4F4F4"/>
</g>
<g id="scarf">
<path id="scarf-bottom" d="M122.963 97.7126L126.833 97.0014C131.729 96.1016 136.732 95.938 141.676 96.516L145.524 96.9657L144.582 141.208L116.592 140.48L122.963 97.7126Z" fill="#BE1919"/>
<path id="scarf-neck" d="M160.707 90.0251C161.584 96.5832 130.429 113.302 93.9985 118.172C57.5681 123.043 41.6507 112.617 40.774 106.059C39.8972 99.501 57.7682 103.787 94.1987 98.9167C130.629 94.0463 159.83 83.467 160.707 90.0251Z" fill="#CB2121"/>
<path id="scarf-top" d="M128.798 92.8376L140.56 90.2562L152.158 88.2012L166.128 140.363L139.081 147.606L128.798 92.8376Z" fill="#AE1313"/>
</g>
<g id="feet">
<ellipse id="Ellipse 1" cx="85.5089" cy="208.143" rx="26.5" ry="31" transform="rotate(-10.4376 85.5089 208.143)" fill="#F4F4F4"/>
<g id="Ellipse 3">
<ellipse cx="86.2922" cy="205.851" rx="21.9028" ry="24.432" transform="rotate(-10.4376 86.2922 205.851)" fill="#F7F7F7"/>
<ellipse cx="86.2922" cy="205.851" rx="21.9028" ry="24.432" transform="rotate(-10.4376 86.2922 205.851)" fill="#F7F7F7"/>
<ellipse cx="86.2922" cy="205.851" rx="21.9028" ry="24.432" transform="rotate(-10.4376 86.2922 205.851)" fill="#F7F7F7"/>
<ellipse cx="86.2922" cy="205.851" rx="21.9028" ry="24.432" transform="rotate(-10.4376 86.2922 205.851)" fill="#FFF5DA"/>
</g>
<ellipse id="Ellipse 2" cx="26.5" cy="31" rx="26.5" ry="31" transform="matrix(-0.983453 -0.181165 -0.181165 0.983453 173.187 182.457)" fill="#F4F4F4"/>
<g id="Ellipse 4">
<ellipse cx="21.9028" cy="24.432" rx="21.9028" ry="24.432" transform="matrix(-0.983453 -0.181165 -0.181165 0.983453 166.764 185.792)" fill="#F7F7F7"/>
<ellipse cx="21.9028" cy="24.432" rx="21.9028" ry="24.432" transform="matrix(-0.983453 -0.181165 -0.181165 0.983453 166.764 185.792)" fill="#F7F7F7"/>
<ellipse cx="21.9028" cy="24.432" rx="21.9028" ry="24.432" transform="matrix(-0.983453 -0.181165 -0.181165 0.983453 166.764 185.792)" fill="#F7F7F7"/>
<ellipse cx="21.9028" cy="24.432" rx="21.9028" ry="24.432" transform="matrix(-0.983453 -0.181165 -0.181165 0.983453 166.764 185.792)" fill="#FFF5DA"/>
</g>
</g>
</g>
</svg>
