<svg width="204" height="236" viewBox="0 0 204 236" fill="none" xmlns="http://www.w3.org/2000/svg">
<g id="Frame 1">
<g id="heisenberg-sitting">
<g id="body">
<path id="torso" d="M183 166.63C183 220.514 148.325 218.996 100 218.996C51.6751 218.996 26 220.514 26 166.63C26 112.746 55.6566 37.6457 100 76.2308C141.657 35.992 183 112.746 183 166.63Z" fill="white"/>
<path id="arm left" d="M40.7558 149.046C44.2818 154.149 48.6207 158.9 50.4791 164.819C56.6581 184.498 42.7562 187 31.2939 187C18.3217 187 0 170.365 0 140.673C0 110.98 29.8869 89 42.859 89C54.8073 89 21.4493 121.101 40.7558 149.046Z" fill="#F4F4F4"/>
<path id="arm right" d="M163.244 149.046C159.718 154.149 155.379 158.9 153.521 164.819C147.342 184.498 161.244 187 172.706 187C185.678 187 204 170.365 204 140.673C204 110.98 174.113 89 161.141 89C149.193 89 182.551 121.101 163.244 149.046Z" fill="#F4F4F4"/>
</g>
<g id="head">
<path id="head head" d="M168 66.941C168 96.5997 139.815 102.335 100.646 102.335C61.4767 102.335 37 96.5997 37 66.941C37 37.2823 61.4767 9.57764 100.646 9.57764C139.815 9.57764 168 37.2823 168 66.941Z" fill="white"/>
<path id="ear left" d="M74.3613 11.7397C78.8914 17.6711 71.1346 20.1187 63.6349 25.8466C56.1352 31.5745 51.7326 38.4137 47.2025 32.4823C42.6724 26.5509 45.0797 17.0992 52.5794 11.3713C60.0791 5.64338 69.8312 5.80834 74.3613 11.7397Z" fill="white"/>
<path id="ear right" d="M155.107 30.4965C150.879 36.6467 146.14 30.0358 138.364 24.6896C130.587 19.3433 122.718 17.2861 126.946 11.1359C131.175 4.98571 140.906 4.33402 148.683 9.68031C156.459 15.0266 159.335 24.3463 155.107 30.4965Z" fill="white"/>
<g id="face">
<path id="snout" d="M130.5 71.5C130.5 82.2696 119.569 90 103 90C86.4315 90 76 82.2696 76 71.5C76 60.7304 86.4315 51 103 51C119.569 51 130.5 60.7304 130.5 71.5Z" fill="#FFF5DA"/>
<path id="nose" d="M114 62.5C114 67.7467 109.075 72 103 72C96.9249 72 92 67.7467 92 62.5C92 57.2533 96.9249 53 103 53C109.075 53 114 57.2533 114 62.5Z" fill="#8E590A"/>
<circle id="eye left" cx="90.5" cy="48.5" r="3.5" fill="black"/>
<circle id="eye right" cx="113.5" cy="48.5" r="3.5" fill="black"/>
</g>
</g>
<g id="scarf">
<path id="scarf bottom" d="M123.571 92.5588L127.5 92.3667C132.472 92.1236 137.453 92.6244 142.277 93.8524L146.031 94.808L139.235 138.535L111.588 134.104L123.571 92.5588Z" fill="#BE1919"/>
<path id="scarf neck" d="M162 89.9406C162 96.5571 128.905 109 92.15 109C55.3955 109 41 96.5571 41 89.9406C41 83.3242 58.1455 89.9406 94.9 89.9406C131.655 89.9406 162 83.3242 162 89.9406Z" fill="#CB2121"/>
<path id="scarf top" d="M130 88.5L142 87.5L153.768 87L160.702 140.553L132.934 144.148L130 88.5Z" fill="#AE1313"/>
</g>
<g id="feet">
<ellipse id="Ellipse 1" cx="72.6776" cy="200.288" rx="26.5" ry="31" transform="rotate(-10.4376 72.6776 200.288)" fill="#F4F4F4"/>
<g id="Ellipse 3">
<ellipse cx="73.4609" cy="197.996" rx="21.9028" ry="24.432" transform="rotate(-10.4376 73.4609 197.996)" fill="#F7F7F7"/>
<ellipse cx="73.4609" cy="197.996" rx="21.9028" ry="24.432" transform="rotate(-10.4376 73.4609 197.996)" fill="#F7F7F7"/>
<ellipse cx="73.4609" cy="197.996" rx="21.9028" ry="24.432" transform="rotate(-10.4376 73.4609 197.996)" fill="#F7F7F7"/>
<ellipse cx="73.4609" cy="197.996" rx="21.9028" ry="24.432" transform="rotate(-10.4376 73.4609 197.996)" fill="#FFF5DA"/>
</g>
<ellipse id="Ellipse 2" cx="26.5" cy="31" rx="26.5" ry="31" transform="matrix(-0.983453 -0.181165 -0.181165 0.983453 160.355 174.602)" fill="#F4F4F4"/>
<g id="Ellipse 4">
<ellipse cx="21.9028" cy="24.432" rx="21.9028" ry="24.432" transform="matrix(-0.983453 -0.181165 -0.181165 0.983453 153.933 177.936)" fill="#F7F7F7"/>
<ellipse cx="21.9028" cy="24.432" rx="21.9028" ry="24.432" transform="matrix(-0.983453 -0.181165 -0.181165 0.983453 153.933 177.936)" fill="#F7F7F7"/>
<ellipse cx="21.9028" cy="24.432" rx="21.9028" ry="24.432" transform="matrix(-0.983453 -0.181165 -0.181165 0.983453 153.933 177.936)" fill="#F7F7F7"/>
<ellipse cx="21.9028" cy="24.432" rx="21.9028" ry="24.432" transform="matrix(-0.983453 -0.181165 -0.181165 0.983453 153.933 177.936)" fill="#FFF5DA"/>
</g>
</g>
</g>
</g>
</svg>
