<svg width="835" height="306" viewBox="0 0 835 306" fill="none" xmlns="http://www.w3.org/2000/svg">
<path d="M36.7922 258.433C14.3161 255.139 33.8419 184.437 46 151.5C102.19 144.295 213.388 139.5 218 170C223.454 206.065 252.528 295.004 172.009 293.311C157.139 292.999 142.079 294.871 128.047 299.802C59.1674 324.006 57.4479 269.723 53.0578 266.667C48.6217 263.579 48.6217 263.579 36.7922 258.433Z" fill="#323232"/>
<path d="M219.5 180C219.5 210.017 91 172.5 91 172.5C91 172.5 50.9118 181.823 43.1987 162.212C42.641 160.794 42.6686 159.224 42.9986 157.736C53.4519 110.612 67.9287 67.6338 126 76C184.5 68.5 219.5 139 219.5 180Z" fill="#848484"/>
<path d="M182.037 229.445C174.128 241.574 163.091 242.634 154.13 236.791C145.169 230.948 144.518 218.463 152.427 206.333C160.336 194.204 175.539 187.657 184.5 193.5C193.461 199.343 189.946 217.315 182.037 229.445Z" fill="#3A3A3A"/>
<path d="M15.5 210C21.3333 198.667 34.2 183.4 39 213" stroke="#101010" stroke-width="3"/>
<ellipse cx="21.5" cy="275.5" rx="18.5" ry="12.5" fill="#0C0C0C"/>
<path d="M0.304968 234.64C0.481776 229.455 4.97897 225.668 10.1625 225.886L37.5144 227.037C43.4058 227.286 47.7952 232.548 46.7988 238.36C45.4776 246.066 43.5334 255.91 41.5 261C40.3552 263.865 39.0951 266.504 37.9916 268.645C36.2664 271.992 32.6374 273.789 28.8871 273.454L13.8145 272.108C9.70624 271.742 6.24299 268.893 5.16963 264.91C3.807 259.854 2.01404 252.857 0.999974 247.5C0.248128 243.528 0.165277 238.736 0.304968 234.64Z" fill="#FFF8BD"/>
<path fill-rule="evenodd" clip-rule="evenodd" d="M38.504 223.697C40.7469 222.24 42.1767 220.164 42.4734 217.549C43.1894 211.237 37.0327 204.171 27.6131 203.102C19.8749 202.224 11.0974 207.12 9.60893 213.334C8.95689 216.055 8.99808 219.316 10.6626 221.567C10.8582 221.831 11.0821 222.077 11.3331 222.308C4.85954 224.931 1 229.382 1 233.498C1 239.851 10.1929 243 24 243C37.8071 243 47 241.351 47 234.999C47 231.288 43.8639 226.794 38.504 223.697Z" fill="#101010"/>
<path d="M21.5625 242.97L20.25 274M8 241C8.29167 251.015 9.6625 271.34 12.8125 272.522M36 241C34.8333 252 31.8 274 29 274" stroke="black"/>
<path d="M47 192C41.9116 201.642 34.4202 208.669 26.8246 204.661C19.2291 200.652 13.4116 192.642 18.5 183C23.5884 173.358 35.9044 164.991 43.5 169C51.0956 173.008 52.0884 182.358 47 192Z" fill="#383838"/>
<path d="M174 146.5C172.105 164.141 142 185.5 100 155.5C71.5 165 58.1227 163.422 56.5 146.5C52.9999 110 72 84 125.5 94C172.5 98 175.895 128.859 174 146.5Z" fill="white"/>
<ellipse cx="73.2221" cy="127.977" rx="8.63416" ry="15.4929" transform="rotate(13.7303 73.2221 127.977)" fill="#272727"/>
<ellipse cx="145" cy="135.5" rx="12" ry="15.5" transform="rotate(8.41586 145 135.5)" fill="#272727"/>
<path fill-rule="evenodd" clip-rule="evenodd" d="M102 156C113.046 156 122 147.717 122 137.5C122 127.283 113.046 119 102 119C94.7931 119 88.4766 122.526 84.9565 127.815C84.9136 127.877 84.8719 127.94 84.8314 128.005C84.3757 128.709 83.9691 129.443 83.616 130.203C81.3451 134.408 78.7183 139.732 77.3269 144.153C74.7167 152.448 74.5742 163.542 75.0782 172.527C75.3517 177.403 81.7703 178.563 84.2918 174.38C88.131 168.012 93.0253 160.821 98 156C98.1065 155.897 98.2149 155.793 98.325 155.688C99.5163 155.893 100.745 156 102 156Z" fill="#EEEEEE"/>
<path fill-rule="evenodd" clip-rule="evenodd" d="M128.916 17.0715C109.743 16.7838 92.5547 16.5258 83.2713 34.2114C77.5911 45.0325 81.1974 60.3755 84.2129 69.3595C57.3791 72.4043 39.0161 79.105 42.4018 88.314C42.1108 96.4491 69.5947 97.2115 106.533 98.2363C114.885 98.468 123.721 98.7131 132.828 99.0599C151.806 99.7826 167.852 101.181 180.762 102.306C205.533 104.465 218.758 105.617 218.993 99.0599C219.26 91.5784 212.37 75.8023 177.617 69.8317C181.078 59.438 183.935 44.39 176.538 34.2114C165.073 18.4355 151.366 17.3539 132.035 17.1156C130.99 17.1027 129.95 17.0871 128.916 17.0715Z" fill="#1F1F1F"/>
<path fill-rule="evenodd" clip-rule="evenodd" d="M179.934 61.3789C169.856 64.6509 152.133 66.8221 131.952 66.8221C110.208 66.8221 91.3165 64.3013 81.7672 60.5987C82.4764 63.8138 83.3493 66.777 84.1802 69.2617C94.2937 72.496 111.911 74.6373 131.952 74.6373C150.744 74.6373 167.404 72.7548 177.746 69.8539C177.703 69.8465 177.66 69.8391 177.617 69.8317C178.476 67.2522 179.297 64.3861 179.934 61.3789Z" fill="#A2A2A2"/>
<path d="M63.5 147C63.5 148.933 63.7761 149.5 63.5 149.5C63.2239 149.5 62 148.933 62 147C62 145.067 63.7239 144 64 144C64.2761 144 63.5 145.067 63.5 147Z" fill="#FFCACA"/>
<path d="M66.5 147C66.5 148.933 66.7761 149.5 66.5 149.5C66.2239 149.5 65 148.933 65 147C65 145.067 66.7239 144 67 144C67.2761 144 66.5 145.067 66.5 147Z" fill="#FFCACA"/>
<ellipse cx="144.595" cy="156.801" rx="1.5" ry="3.5" transform="rotate(19.7617 144.595 156.801)" fill="#FFCACA"/>
<ellipse cx="148.595" cy="156.801" rx="1.5" ry="3.5" transform="rotate(19.7617 148.595 156.801)" fill="#FFCACA"/>
<path d="M336.792 258.433C314.316 255.139 333.842 184.437 346 151.5C402.19 144.295 513.388 139.5 518 170C523.454 206.065 552.528 295.004 472.009 293.311C457.139 292.999 442.079 294.871 428.047 299.802C359.167 324.006 357.448 269.723 353.058 266.667C348.622 263.579 348.622 263.579 336.792 258.433Z" fill="#323232"/>
<path d="M519.5 180C519.5 210.017 391 172.5 391 172.5C391 172.5 350.912 181.823 343.199 162.212C342.641 160.794 342.669 159.224 342.999 157.736C353.452 110.612 367.929 67.6338 426 76C484.5 68.5 519.5 139 519.5 180Z" fill="#848484"/>
<path d="M482.037 229.445C474.128 241.574 463.091 242.634 454.13 236.791C445.169 230.948 444.518 218.463 452.427 206.333C460.336 194.204 475.539 187.657 484.5 193.5C493.461 199.343 489.946 217.315 482.037 229.445Z" fill="#3A3A3A"/>
<path d="M315.5 210C321.333 198.667 334.2 183.4 339 213" stroke="#101010" stroke-width="3"/>
<g filter="url(#filter0_f_13_154)">
<ellipse cx="322.5" cy="250" rx="28.5" ry="24" fill="#FFF8BD" fill-opacity="0.5"/>
</g>
<ellipse cx="321.5" cy="275.5" rx="18.5" ry="12.5" fill="#0C0C0C"/>
<path d="M300.305 234.64C300.482 229.455 304.979 225.668 310.162 225.886L337.514 227.037C343.406 227.286 347.795 232.548 346.799 238.36C345.478 246.066 343.533 255.91 341.5 261C340.355 263.866 339.095 266.504 337.992 268.645C336.266 271.992 332.637 273.789 328.887 273.454L313.815 272.108C309.706 271.742 306.243 268.893 305.17 264.91C303.807 259.854 302.014 252.857 301 247.5C300.248 243.528 300.165 238.736 300.305 234.64Z" fill="#FFF8BD"/>
<path fill-rule="evenodd" clip-rule="evenodd" d="M338.504 223.698C340.747 222.24 342.177 220.164 342.473 217.549C343.189 211.237 337.033 204.171 327.613 203.102C319.875 202.224 311.097 207.12 309.609 213.334C308.957 216.055 308.998 219.317 310.663 221.567C310.858 221.831 311.082 222.077 311.333 222.308C304.86 224.931 301 229.382 301 233.498C301 239.851 310.193 243 324 243C337.807 243 347 241.351 347 234.999C347 231.288 343.864 226.794 338.504 223.698Z" fill="#101010"/>
<path d="M321.562 242.97L320.25 274M308 241C308.292 251.015 309.663 271.34 312.812 272.522M336 241C334.833 252 331.8 274 329 274" stroke="black"/>
<path d="M347 192C341.912 201.642 334.42 208.669 326.825 204.661C319.229 200.652 313.412 192.642 318.5 183C323.588 173.358 335.904 164.992 343.5 169C351.096 173.009 352.088 182.358 347 192Z" fill="#383838"/>
<path d="M474 146.5C472.105 164.141 442 185.5 400 155.5C371.5 165 358.123 163.422 356.5 146.5C353 110 372 84 425.5 94C472.5 98 475.895 128.859 474 146.5Z" fill="white"/>
<ellipse cx="373.222" cy="127.977" rx="8.63416" ry="15.4929" transform="rotate(13.7303 373.222 127.977)" fill="#272727"/>
<ellipse cx="445" cy="135.5" rx="12" ry="15.5" transform="rotate(8.41586 445 135.5)" fill="#272727"/>
<path fill-rule="evenodd" clip-rule="evenodd" d="M402 156C413.046 156 422 147.717 422 137.5C422 127.283 413.046 119 402 119C394.793 119 388.477 122.526 384.957 127.815C384.914 127.877 384.872 127.94 384.831 128.005C384.376 128.709 383.969 129.443 383.616 130.203C381.345 134.408 378.718 139.732 377.327 144.153C374.717 152.448 374.574 163.542 375.078 172.527C375.352 177.403 381.77 178.563 384.292 174.38C388.131 168.012 393.025 160.821 398 156C398.107 155.897 398.215 155.793 398.325 155.688C399.516 155.893 400.745 156 402 156Z" fill="#EEEEEE"/>
<path fill-rule="evenodd" clip-rule="evenodd" d="M434.247 17.2045C415.254 14.5705 398.227 12.209 386.847 28.6244C379.884 38.6682 381.584 54.3374 383.476 63.6232C356.472 63.3582 337.426 67.7592 339.658 77.3136C338.373 85.3518 365.557 89.4749 402.091 95.0165C410.352 96.2695 419.091 97.595 428.087 99.0547C446.834 102.096 462.588 105.45 475.263 108.148C499.583 113.324 512.567 116.088 513.603 109.609C514.785 102.216 509.88 85.7152 476.119 75.5326C480.827 65.6412 485.506 51.0564 479.411 40.0484C469.965 22.987 456.493 20.2346 437.337 17.6303C436.302 17.4895 435.272 17.3466 434.247 17.2045Z" fill="#1F1F1F"/>
<path fill-rule="evenodd" clip-rule="evenodd" d="M479.455 67.4274C469.051 69.4403 451.196 69.4243 431.167 66.9524C409.586 64.2889 391.146 59.4732 382.122 54.6288C382.432 57.9065 382.935 60.9543 383.456 63.5221C393.097 67.9709 410.32 72.254 430.21 74.7088C448.86 77.0105 465.625 77.1828 476.244 75.5705C476.203 75.5579 476.161 75.5453 476.119 75.5326C477.287 73.0778 478.454 70.3339 479.455 67.4274Z" fill="#A2A2A2"/>
<path d="M363.5 147C363.5 148.933 363.776 149.5 363.5 149.5C363.224 149.5 362 148.933 362 147C362 145.067 363.724 144 364 144C364.276 144 363.5 145.067 363.5 147Z" fill="#FFCACA"/>
<path d="M366.5 147C366.5 148.933 366.776 149.5 366.5 149.5C366.224 149.5 365 148.933 365 147C365 145.067 366.724 144 367 144C367.276 144 366.5 145.067 366.5 147Z" fill="#FFCACA"/>
<ellipse cx="444.595" cy="156.801" rx="1.5" ry="3.5" transform="rotate(19.7617 444.595 156.801)" fill="#FFCACA"/>
<ellipse cx="448.595" cy="156.801" rx="1.5" ry="3.5" transform="rotate(19.7617 448.595 156.801)" fill="#FFCACA"/>
<path d="M636.792 257.945C614.316 254.652 633.842 183.949 646 151.013C702.19 143.808 813.388 139.013 818 169.513C823.454 205.578 852.528 294.517 772.009 292.824C757.139 292.511 742.079 294.384 728.047 299.315C659.167 323.519 657.448 269.235 653.058 266.18C648.622 263.092 648.622 263.092 636.792 257.945Z" fill="#323232"/>
<path d="M819.5 179.513C819.5 209.529 691 172.013 691 172.013C691 172.013 650.912 181.336 643.199 161.724C642.641 160.306 642.669 158.736 642.999 157.249C653.452 110.125 667.929 67.1465 726 75.5127C784.5 68.0127 819.5 138.513 819.5 179.513Z" fill="#848484"/>
<path d="M782.037 228.957C774.128 241.087 763.091 242.147 754.13 236.304C745.169 230.461 744.518 217.976 752.427 205.846C760.336 193.716 775.539 187.17 784.5 193.013C793.461 198.856 789.946 216.828 782.037 228.957Z" fill="#3A3A3A"/>
<path d="M615.5 209.513C621.333 198.179 634.2 182.913 639 212.513" stroke="#101010" stroke-width="3"/>
<g filter="url(#filter1_f_13_154)">
<ellipse cx="622" cy="249.5" rx="34" ry="24.5" fill="#FFF8BD" fill-opacity="0.5"/>
</g>
<ellipse cx="621.5" cy="275.013" rx="18.5" ry="12.5" fill="#0C0C0C"/>
<path d="M600.305 234.152C600.482 228.967 604.979 225.18 610.162 225.398L637.514 226.55C643.406 226.798 647.795 232.061 646.799 237.873C645.478 245.579 643.533 255.423 641.5 260.513C640.355 263.378 639.095 266.017 637.992 268.158C636.266 271.505 632.637 273.302 628.887 272.967L613.815 271.621C609.706 271.254 606.243 268.405 605.17 264.423C603.807 259.367 602.014 252.369 601 247.013C600.248 243.041 600.165 238.249 600.305 234.152Z" fill="#FFF8BD"/>
<path fill-rule="evenodd" clip-rule="evenodd" d="M638.504 223.21C640.747 221.752 642.177 219.677 642.473 217.062C643.189 210.75 637.033 203.684 627.613 202.615C619.875 201.737 611.097 206.633 609.609 212.846C608.957 215.568 608.998 218.829 610.663 221.079C610.858 221.344 611.082 221.59 611.333 221.82C604.86 224.444 601 228.895 601 233.011C601 239.363 610.193 242.513 624 242.513C637.807 242.513 647 240.864 647 234.511C647 230.801 643.864 226.307 638.504 223.21Z" fill="#101010"/>
<path d="M621.562 242.483L620.25 273.513M608 240.513C608.292 250.528 609.663 270.853 612.812 272.035M636 240.513C634.833 251.513 631.8 273.513 629 273.513" stroke="black"/>
<path d="M647 191.513C641.912 201.155 634.42 208.182 626.825 204.173C619.229 200.165 613.412 192.155 618.5 182.513C623.588 172.871 635.904 164.504 643.5 168.513C651.096 172.521 652.088 181.871 647 191.513Z" fill="#383838"/>
<path d="M774 146.013C772.105 163.654 742 185.013 700 155.013C671.5 164.513 658.123 162.935 656.5 146.013C653 109.513 672 83.5127 725.5 93.5127C772.5 97.5127 775.895 128.371 774 146.013Z" fill="white"/>
<ellipse cx="673.222" cy="127.49" rx="8.63416" ry="15.4929" transform="rotate(13.7303 673.222 127.49)" fill="#272727"/>
<ellipse cx="745" cy="135.013" rx="12" ry="15.5" transform="rotate(8.41586 745 135.013)" fill="#272727"/>
<path fill-rule="evenodd" clip-rule="evenodd" d="M702 155.513C713.046 155.513 722 147.23 722 137.013C722 126.795 713.046 118.513 702 118.513C694.793 118.513 688.477 122.039 684.957 127.327C684.914 127.39 684.872 127.453 684.831 127.518C684.376 128.222 683.969 128.955 683.616 129.716C681.345 133.921 678.718 139.244 677.327 143.666C674.717 151.961 674.574 163.055 675.078 172.039C675.352 176.916 681.77 178.076 684.292 173.893C688.131 167.525 693.025 160.334 698 155.513C698.107 155.409 698.215 155.306 698.325 155.201C699.516 155.406 700.745 155.513 702 155.513Z" fill="#EEEEEE"/>
<path fill-rule="evenodd" clip-rule="evenodd" d="M746.343 19.269C727.687 14.8426 710.96 10.8742 698.072 26.1343C690.187 35.4712 690.391 51.2311 691.392 60.6546C664.535 57.8255 645.157 60.3973 646.472 70.1205C644.429 78.0002 671.098 84.6871 706.941 93.6743C715.045 95.7064 723.619 97.856 732.435 100.164C750.808 104.973 766.172 109.807 778.534 113.697C802.252 121.161 814.915 125.145 816.562 118.794C818.441 111.547 815.125 94.6546 782.485 81.311C788.111 71.9115 794.154 57.8371 789.133 46.3C781.35 28.4184 768.201 24.3987 749.379 19.9863C748.362 19.7478 747.35 19.5077 746.343 19.269Z" fill="#1F1F1F"/>
<path fill-rule="evenodd" clip-rule="evenodd" d="M786.575 73.5593C776.027 74.5747 758.254 72.8626 738.551 68.4992C717.321 63.7977 699.421 57.252 690.899 51.5722C690.896 54.8645 691.107 57.9464 691.381 60.552C700.556 65.8965 717.294 71.7964 736.861 76.1296C755.208 80.1925 771.881 81.9568 782.606 81.3606C782.566 81.344 782.525 81.3275 782.485 81.311C783.881 78.9782 785.303 76.3576 786.575 73.5593Z" fill="#A2A2A2"/>
<path d="M663.5 146.513C663.5 148.446 663.776 149.013 663.5 149.013C663.224 149.013 662 148.446 662 146.513C662 144.58 663.724 143.513 664 143.513C664.276 143.513 663.5 144.58 663.5 146.513Z" fill="#FFCACA"/>
<path d="M666.5 146.513C666.5 148.446 666.776 149.013 666.5 149.013C666.224 149.013 665 148.446 665 146.513C665 144.58 666.724 143.513 667 143.513C667.276 143.513 666.5 144.58 666.5 146.513Z" fill="#FFCACA"/>
<ellipse cx="744.595" cy="156.314" rx="1.5" ry="3.5" transform="rotate(19.7617 744.595 156.314)" fill="#FFCACA"/>
<ellipse cx="748.595" cy="156.314" rx="1.5" ry="3.5" transform="rotate(19.7617 748.595 156.314)" fill="#FFCACA"/>
<defs>
<filter id="filter0_f_13_154" x="290" y="222" width="65" height="56" filterUnits="userSpaceOnUse" color-interpolation-filters="sRGB">
<feFlood flood-opacity="0" result="BackgroundImageFix"/>
<feBlend mode="normal" in="SourceGraphic" in2="BackgroundImageFix" result="shape"/>
<feGaussianBlur stdDeviation="2" result="effect1_foregroundBlur_13_154"/>
</filter>
<filter id="filter1_f_13_154" x="584" y="221" width="76" height="57" filterUnits="userSpaceOnUse" color-interpolation-filters="sRGB">
<feFlood flood-opacity="0" result="BackgroundImageFix"/>
<feBlend mode="normal" in="SourceGraphic" in2="BackgroundImageFix" result="shape"/>
<feGaussianBlur stdDeviation="2" result="effect1_foregroundBlur_13_154"/>
</filter>
</defs>
</svg>
